# xmcd
#
# Track frame offsets:
#	300
#	12136
#	20488
#	32700
#	41926
#	55649
#	65579
#	77685
#	90980
#	102790
#
# Disc length: 1507 seconds
#
# Revision: 1
# Processed by: cddbd v1.5.2PL0 Copyright (c) Steve Scherf et al.
# Submitted via: audiograbber 1.83.01
#
DISCID=7205df0a
DTITLE=Country Legends - Country Titans
DYEAR=2008
DGENRE=Country
TTITLE0=long gone lonesome blues
TTITLE1=guess things happen that way
TTITLE2=workin' man blues
TTITLE3=home
TTITLE4=tennessee waltz
TTITLE5=I wanna play house with you
TTITLE6=release me
TTITLE7=I don't hurt anymore
TTITLE8=walking the floor over you
TTITLE9=wake up Irene
EXTD=
EXTT0=
EXTT1=
EXTT2=
EXTT3=
EXTT4=
EXTT5=
EXTT6=
EXTT7=
EXTT8=
EXTT9=
PLAYORDER=
